#!OML:ASF F:\VICON\USERDATA\INSTALL\rory3\rory3.ASF
:FULLY-SPECIFIED
:DEGREES
429
root -8.40343 17.5553 14.9143 241.402 -82.648 -245.232
lowerback 11.2397 0.342587 -6.51775
upperback 1.4191 -0.458895 -0.798456
thorax -4.77827 -0.145402 2.90822
lowerneck -21.723 -6.27136 -12.3895
upperneck 27.9808 -8.17972 9.80925
head 14.1626 -3.72 4.48706
rclavicle -9.21864e-015 -2.38542e-015
rhumerus -38.3897 -17.4833 -77.4411
rradius 29.6241
rwrist 7.38821
rhand -14.9073 10.1937
rfingers 7.12502
rthumb 11.2541 -19.4844
lclavicle -9.21864e-015 -2.38542e-015
lhumerus -27.9201 1.48966 78.604
lradius 39.3217
lwrist 0.240308
lhand -19.7454 23.5507
lfingers 7.12502
lthumb 6.58562 53.4283
rfemur -24.7225 -1.27462 11.172
rtibia 24.9464
rfoot -3.93025 -0.573497
rtoes 3.09696
lfemur 20.5469 -2.55517 -29.7155
ltibia 5.725e-014
lfoot -7.41098 -2.80003
ltoes -14.4409
430
root -8.52485 17.5573 14.874 243.179 -82.5702 -247.089
lowerback 11.2688 0.332303 -6.77897
upperback 1.46418 -0.508721 -0.820767
thorax -4.74016 -0.168777 3.03928
lowerneck -21.8112 -6.31274 -12.4814
upperneck 28.0577 -8.24142 9.91724
head 14.2353 -3.74136 4.53759
rclavicle -1.21756e-015 -2.50469e-014
rhumerus -38.3658 -17.6303 -77.332
rradius 29.3207
rwrist 7.71916
rhand -14.6956 10.196
rfingers 7.12502
rthumb 11.4583 -19.4709
lclavicle -1.21756e-015 -2.50469e-014
lhumerus -28.0541 1.70688 78.6416
lradius 39.1637
lwrist -0.0435099
lhand -19.8187 23.2122
lfingers 7.12502
lthumb 6.51481 53.092
rfemur -24.5462 -0.998988 11.0342
rtibia 25.5712
rfoot -3.08367 -0.80129
rtoes 4.5097
lfemur 21.0573 -2.91454 -29.9277
ltibia 4.13472e-014
lfoot -7.21176 -2.52736
ltoes -16.4758
431
root -8.64944 17.5685 14.8312 244.118 -82.7339 -248.129
lowerback 11.3457 0.289231 -6.77304
upperback 1.47897 -0.567774 -0.765706
thorax -4.7607 -0.197117 3.10342
lowerneck -21.78 -6.27003 -12.2465
upperneck 27.976 -8.12527 9.53856
head 14.1421 -3.7126 4.35964
rclavicle -2.28602e-015 -1.98785e-014
rhumerus -38.3838 -17.6369 -77.313
rradius 28.97
rwrist 7.7198
rhand -14.7262 10.354
rfingers 7.12502
rthumb 11.4288 -19.3145
lclavicle -2.28602e-015 -1.98785e-014
lhumerus -28.3075 2.17759 78.6081
lradius 39.0243
lwrist -0.510786
lhand -19.3495 21.7963
lfingers 7.12502
lthumb 6.9678 51.6616
rfemur -24.2935 -0.842507 11.2312
rtibia 26.0485
rfoot -1.88361 -0.766118
rtoes 4.89325
lfemur 21.6046 -3.29882 -29.8233
ltibia -9.54166e-015
lfoot -6.92398 -2.37795
ltoes -16.6532
432
root -8.77629 17.5839 14.7933 244.904 -83.0363 -248.915
lowerback 11.3299 0.212846 -6.53476
upperback 1.45457 -0.632189 -0.686317
thorax -4.77239 -0.230251 3.0625
lowerneck -21.6355 -6.1819 -11.9158
upperneck 27.7399 -7.91794 8.99835
head 13.9338 -3.65518 4.11452
rclavicle 5.14355e-015 -1.59028e-014
rhumerus -38.4472 -17.5424 -77.3489
rradius 28.6763
rwrist 7.32598
rhand -15.2039 10.4716
rfingers 7.12502
rthumb 10.9681 -19.2219
lclavicle 5.14355e-015 -1.59028e-014
lhumerus -28.5849 2.37019 78.6473
lradius 38.8814
lwrist -0.544817
lhand -19.7451 21.0614
lfingers 7.12502
lthumb 6.58588 50.939
rfemur -24.0908 -0.838041 11.5978
rtibia 26.3601
rfoot -0.474349 -0.434076
rtoes 5.80035
lfemur 22.0512 -3.7248 -29.5764
ltibia -4.77083e-014
lfoot -6.5356 -2.26239
ltoes -16.5671
433
root -8.90138 17.6027 14.7524 245.913 -83.3967 -249.841
lowerback 11.2944 0.111659 -6.3415
upperback 1.37816 -0.72995 -0.539844
thorax -4.82343 -0.275147 3.12241
lowerneck -21.5328 -6.13074 -11.7957
upperneck 27.6428 -7.76259 8.63461
head 13.8247 -3.62253 3.97342
rclavicle 2.73329e-015 1.39149e-014
rhumerus -38.5627 -17.675 -77.1543
rradius 28.4001
rwrist 7.43898
rhand -15.5889 10.4001
rfingers 7.12502
rthumb 10.5967 -19.3127
lclavicle 2.73329e-015 1.39149e-014
lhumerus -28.896 2.4988 78.7706
lradius 38.6659
lwrist -0.392259
lhand -21.373 22.982
lfingers 7.12502
lthumb 5.01423 52.9027
rfemur -23.8895 -0.52625 11.9413
rtibia 26.5355
rfoot 0.614659 -0.382604
rtoes 9.43998
lfemur 22.4008 -4.19944 -29.2603
ltibia -6.36111e-014
lfoot -6.07357 -2.1662
ltoes -16.9933
